<svg width="1024" height="1024" viewBox="0 0 1024 1024" fill="none" xmlns="http://www.w3.org/2000/svg">
<path d="M430.696 831.389C431.818 831.389 432.883 831.881 433.614 832.73C478.845 885.282 535.29 926.835 577.322 951.869C580.531 953.78 579.465 958.752 575.751 959.142L497.711 967.324C496.803 967.419 495.9 967.195 495.15 966.675C456.53 939.868 408.146 893.969 371.468 837.222C369.834 834.694 371.663 831.389 374.673 831.389H430.696ZM934.532 334.922C958.64 390.775 972 452.355 972 517.056C972 656.355 910.08 781.192 812.265 865.547C634.453 792.266 499.841 702.361 505.291 597.556C514.578 418.966 739.525 355.197 934.532 334.922ZM512 57.0557C699.394 57.0557 860.614 169.111 932.315 329.87C242.69 315.641 117.042 574.064 165.815 819.978C94.9496 739.056 52 633.072 52 517.056C52.0003 263.005 257.949 57.0557 512 57.0557ZM316.497 665.439C316.538 663.197 318.521 661.502 320.748 661.77L354.117 665.772C355.967 665.994 357.386 667.515 357.515 669.374C360.021 705.555 372.241 740.008 390.285 771.896C391.749 774.482 389.9 777.722 386.929 777.722H342.262C340.721 777.722 339.328 776.799 338.739 775.375C324.403 740.691 315.807 703.593 316.497 665.439ZM367.824 521.9C368.69 520.756 370.128 520.204 371.54 520.461L394.541 524.644C397.302 525.146 398.609 528.349 397.04 530.676C380.78 554.784 368.397 582.306 361.54 613.847C361.306 614.922 361.083 615.996 360.868 617.068C360.471 619.057 358.622 620.426 356.608 620.185L327.003 616.634C324.728 616.361 323.196 614.166 323.77 611.947C325.256 606.199 326.981 600.442 328.957 594.68C338.286 567.482 351.622 543.329 367.824 521.9ZM488.375 424.406C489.291 423.932 490.36 423.851 491.338 424.178L503.248 428.152C506.406 429.207 506.82 433.526 503.943 435.203C480.651 448.787 458.347 464.51 438.428 482.888C437.537 483.71 436.313 484.071 435.12 483.854L415.539 480.293C412.395 479.721 411.302 475.792 413.74 473.727C436.707 454.269 462.147 437.987 488.375 424.406ZM625.011 375.217C629.625 374.142 631.027 379.682 626.545 381.218C611.64 386.325 596.109 391.979 580.357 398.328C579.511 398.669 578.568 398.7 577.702 398.411L572.843 396.789C569.364 395.628 569.36 390.748 572.852 389.625C590.91 383.816 608.484 379.066 625.011 375.217Z" fill="white" style="fill:white;fill-opacity:1;"/>
</svg>
