<svg width="1024" height="1024" viewBox="0 0 1024 1024" fill="none" xmlns="http://www.w3.org/2000/svg">
<path d="M512 0C794.77 0 1024 229.23 1024 512C1024 794.77 794.77 1024 512 1024C229.23 1024 0 794.77 0 512C0 229.23 229.23 0 512 0ZM404.527 759.25C402.172 759.25 400.74 761.837 402.019 763.814C430.724 808.225 468.59 844.147 498.814 865.126C499.401 865.533 500.108 865.709 500.818 865.635L561.893 859.23C564.8 858.926 565.633 855.035 563.122 853.539C530.227 833.947 486.053 801.427 450.655 760.3C450.083 759.635 449.249 759.25 448.371 759.25H404.527ZM842.678 370.71C690.064 386.577 514.018 436.484 506.75 576.25C502.485 658.271 607.833 728.631 746.989 785.981C823.54 719.964 872 622.267 872 513.25C872 462.615 861.545 414.421 842.678 370.71ZM512 153.25C313.177 153.25 152 314.427 152 513.25C152 604.048 185.614 686.994 241.077 750.324C202.903 557.868 301.23 355.621 840.942 366.757C784.828 240.945 658.656 153.25 512 153.25ZM362.325 626.505C360.582 626.296 359.03 627.622 358.998 629.377C358.458 659.236 365.188 688.269 376.407 715.413C376.868 716.528 377.958 717.25 379.164 717.25H414.118C416.444 717.25 417.89 714.714 416.745 712.69C402.624 687.735 393.06 660.771 391.099 632.455C390.998 631.001 389.888 629.81 388.44 629.637L362.325 626.505ZM402.077 515.914C400.972 515.713 399.846 516.145 399.169 517.041C386.489 533.812 376.05 552.714 368.749 574C367.202 578.509 365.853 583.015 364.69 587.514C364.242 589.25 365.44 590.967 367.221 591.181L390.39 593.96C391.965 594.149 393.413 593.078 393.724 591.521C393.891 590.682 394.066 589.841 394.249 589C399.615 564.315 409.308 542.777 422.033 523.909C423.261 522.089 422.239 519.582 420.078 519.188L402.077 515.914ZM495.831 440.564C495.065 440.309 494.229 440.372 493.512 440.743C472.986 451.372 453.077 464.112 435.104 479.34C433.195 480.957 434.05 484.032 436.511 484.479L451.84 487.268C452.773 487.437 453.731 487.154 454.428 486.511C470.015 472.129 487.468 459.823 505.695 449.192C507.946 447.879 507.622 444.5 505.15 443.675L495.831 440.564ZM601.646 406.942C605.152 405.74 604.055 401.405 600.444 402.246C587.511 405.259 573.756 408.975 559.624 413.521C556.892 414.401 556.895 418.22 559.618 419.129L563.421 420.398C564.099 420.625 564.836 420.6 565.499 420.333C577.826 415.364 589.981 410.939 601.646 406.942Z" fill="white" style="fill:white;fill-opacity:1;"/>
</svg>
