<svg width="1024" height="1024" viewBox="0 0 1024 1024" fill="none" xmlns="http://www.w3.org/2000/svg">
<path d="M421.502 867.471C422.75 867.471 423.936 868.019 424.75 868.965C475.094 927.458 537.923 973.707 584.707 1001.57C588.278 1003.7 587.092 1009.23 582.958 1009.67L496.096 1018.77C495.085 1018.88 494.081 1018.63 493.246 1018.05C450.26 988.213 396.403 937.126 355.578 873.963C353.76 871.15 355.796 867.471 359.146 867.471H421.502ZM982.298 314.882C1009.13 377.049 1024 445.59 1024 517.604C1024 672.651 955.08 811.599 846.207 905.49C648.296 823.925 498.468 723.857 504.533 607.205C514.87 408.427 765.247 337.448 982.298 314.882ZM512 5.60449C720.578 5.60449 900.023 130.326 979.83 309.259C212.247 293.421 72.3944 581.057 126.682 854.77C47.8047 764.701 0.000172463 646.735 0 517.604C0 234.835 229.23 5.60449 512 5.60449ZM294.397 682.763C294.443 680.266 296.649 678.38 299.128 678.678L336.27 683.132C338.329 683.379 339.907 685.073 340.051 687.142C342.84 727.413 356.442 765.761 376.526 801.253C378.155 804.132 376.098 807.737 372.791 807.737H323.075C321.36 807.737 319.81 806.711 319.154 805.126C303.198 766.521 293.629 725.229 294.397 682.763ZM351.527 522.998C352.491 521.724 354.092 521.11 355.663 521.396L381.265 526.051C384.337 526.61 385.792 530.176 384.046 532.766C365.948 559.6 352.164 590.231 344.532 625.338C344.272 626.534 344.023 627.73 343.784 628.924C343.342 631.137 341.284 632.66 339.043 632.392L306.091 628.44C303.559 628.137 301.854 625.693 302.492 623.224C304.146 616.826 306.066 610.417 308.266 604.004C318.649 573.732 333.494 546.849 351.527 522.998ZM485.703 414.482C486.723 413.955 487.912 413.865 489.001 414.229L502.258 418.653C505.773 419.827 506.234 424.633 503.032 426.5C477.108 441.62 452.283 459.12 430.112 479.575C429.121 480.49 427.758 480.892 426.431 480.65L404.636 476.687C401.136 476.05 399.92 471.677 402.634 469.378C428.196 447.721 456.511 429.599 485.703 414.482ZM637.785 359.732C642.921 358.536 644.482 364.703 639.493 366.412C622.904 372.097 605.617 378.39 588.085 385.457C587.142 385.837 586.094 385.871 585.13 385.549L579.722 383.744C575.849 382.452 575.844 377.02 579.73 375.77C599.83 369.304 619.391 364.017 637.785 359.732Z" fill="white" style="fill:white;fill-opacity:1;"/>
</svg>
