<svg width="1024" height="1024" viewBox="0 0 1024 1024" fill="none" xmlns="http://www.w3.org/2000/svg">
<path d="M752 52C873.503 52 972 150.497 972 272V752C972 873.503 873.503 972 752 972H272C150.497 972 52 873.503 52 752V272C52 150.497 150.497 52 272 52H752ZM785.04 437.067C755.257 437.067 731.36 439.074 712.489 443.064C693.905 447.165 680.193 452.764 671.353 459.862C662.512 466.961 658.081 475.207 658.081 484.62V539.557C658.081 549.036 662.512 557.369 671.353 564.534C680.193 571.699 693.905 577.343 712.489 581.487C731.36 585.522 755.544 587.55 785.04 587.55C814.537 587.55 839.008 585.522 857.592 581.487C876.176 577.343 889.888 571.699 898.729 564.534C907.569 557.259 912 548.948 912 539.557V484.62C912 475.317 907.569 467.071 898.729 459.862C889.888 452.764 876.176 447.165 857.592 443.064C839.008 439.074 814.823 437.067 785.04 437.067ZM112 447.451V539.006C112 548.309 116.431 556.554 125.271 563.763C134.112 570.861 147.824 576.461 166.408 580.562C184.992 584.552 209.176 586.558 238.959 586.558C268.456 586.558 292.64 584.552 311.511 580.562C330.095 576.461 343.807 570.861 352.647 563.763C361.487 556.664 365.918 548.419 365.918 539.006V447.451H308.688V527.74C308.688 533.34 306.506 538.521 302.142 543.261C297.777 548 290.457 551.792 280.162 554.658C269.889 557.502 256 558.935 238.519 558.935C221.037 558.935 206.905 557.502 196.874 554.658C186.844 551.814 179.789 548.022 175.667 543.261C171.545 538.521 169.494 533.34 169.494 527.74V447.451H112ZM511.986 437.067C482.49 437.067 458.306 439.074 439.436 443.064C420.852 447.165 407.139 452.764 398.299 459.862C389.459 466.961 385.027 475.207 385.027 484.62V575.866H442.257V495.863C442.257 490.264 444.44 485.082 448.805 480.343C453.17 475.603 460.488 471.811 470.783 468.945C481.056 466.101 494.946 464.669 512.428 464.669C529.91 464.669 544.041 466.101 554.071 468.945C564.102 471.789 571.156 475.581 575.278 480.343C579.401 485.082 581.451 490.264 581.451 495.863V575.844H638.968V484.62C638.968 475.317 634.536 467.071 625.696 459.862C616.856 452.764 603.143 447.165 584.56 443.064C565.975 439.074 541.792 437.067 512.009 437.067H511.986ZM785.394 464.713C802.875 464.713 817.007 466.145 827.037 468.989C837.067 471.833 844.122 475.625 848.244 480.387C852.367 485.126 854.417 490.308 854.417 495.907V528.292C854.417 533.935 852.366 539.161 848.244 543.944C844.122 548.728 837.067 552.564 827.037 555.43C817.007 558.296 803.14 559.729 785.394 559.729C767.647 559.729 754.044 558.296 743.749 555.43C733.476 552.564 726.135 548.728 721.771 543.944C717.406 539.161 715.223 533.935 715.223 528.292V495.907C715.223 490.308 717.406 485.126 721.771 480.387C726.136 475.647 733.454 471.855 743.749 468.989C754.022 466.145 767.912 464.713 785.394 464.713Z" fill="white" style="fill:white;fill-opacity:1;"/>
</svg>
