<svg width="1024" height="1024" viewBox="0 0 1024 1024" fill="none" xmlns="http://www.w3.org/2000/svg">
<g clip-path="url(#clip0_1837_17061)">
<path d="M892.557 854.396C798.837 958.524 663.007 1024 511.884 1024C492.97 1024 474.297 1022.97 455.915 1020.97C526.295 965.741 583.767 935.239 660.717 904.439C740.111 872.661 814.961 855.655 892.557 854.396ZM184.739 769.736C458.502 532.023 702.862 481.214 1011.95 622.396C1003.81 659.455 991.648 695.01 975.953 728.581C830.248 680.722 700.869 682.085 561.819 725.802C466.81 755.671 389.637 799.026 217.302 919.319C214.575 921.223 211.857 923.099 209.149 924.951C172.615 898.122 139.771 866.563 111.521 831.174C133.862 813.244 158.093 792.876 184.739 769.736ZM524.092 239.2C672.566 228.535 852.142 291.023 1012.48 404.047C1019.95 438.85 1023.88 474.965 1023.88 512C1023.88 514.727 1023.86 517.449 1023.82 520.166C768.767 358.889 499.21 339.741 266.96 478.905C210.548 512.704 169.584 543.95 23.2636 665.402C9.17636 620.486 1.11209 572.906 0.0155334 523.606C215.74 314.209 329.636 253.175 524.092 239.2ZM511.884 0C715.51 0 891.37 118.872 973.862 291.005C741.948 87.0363 465.451 21.651 230.325 130.295C183.388 151.972 142.613 176.503 96.1288 213.117C189.086 84.039 340.671 0.000156746 511.884 0Z" fill="white" style="fill:white;fill-opacity:1;"/>
</g>
<defs>
<clipPath id="clip0_1837_17061">
<rect width="1023.9" height="1024" fill="white" style="fill:white;fill-opacity:1;"/>
</clipPath>
</defs>
</svg>
