<svg width="1024" height="1024" viewBox="0 0 1024 1024" fill="none" xmlns="http://www.w3.org/2000/svg">
<g clip-path="url(#clip0_1837_17061)">
<path d="M512 0C794.77 0 1024 229.23 1024 512C1024 794.77 794.77 1024 512 1024C229.23 1024 0 794.77 0 512C0 229.23 229.23 0 512 0ZM801.936 772.873C742.815 773.832 685.787 786.79 625.296 811.002C566.669 834.468 522.879 857.708 469.257 899.79C483.262 901.313 497.489 902.096 511.899 902.096C627.041 902.096 730.53 852.209 801.936 772.873ZM892.901 596.111C657.406 488.545 471.228 527.256 262.646 708.371C242.345 726.001 223.883 741.52 206.861 755.181C228.385 782.143 253.408 806.189 281.244 826.63C283.307 825.219 285.379 823.789 287.456 822.339C418.759 730.688 477.557 697.654 549.944 674.896C655.887 641.588 754.462 640.551 865.476 677.016C877.433 651.438 886.696 624.347 892.901 596.111ZM893.307 429.752C771.144 343.638 634.324 296.027 521.2 304.153C373.044 314.801 286.266 361.303 121.904 520.844C122.74 558.405 128.884 594.657 139.617 628.878C251.098 536.344 282.31 512.537 325.29 486.786C502.242 380.757 707.62 395.345 901.943 518.222C901.976 516.152 901.995 514.078 901.995 512.001C901.995 483.785 898.997 456.268 893.307 429.752ZM511.899 121.905C381.45 121.905 265.955 185.936 195.131 284.283C230.548 256.386 261.615 237.694 297.378 221.178C476.522 138.401 687.187 188.219 863.884 343.624C801.033 212.474 667.044 121.905 511.899 121.905Z" fill="white" style="fill:white;fill-opacity:1;"/>
</g>
<defs>
<clipPath id="clip0_1837_17061">
<rect width="1023.9" height="1024" fill="white" style="fill:white;fill-opacity:1;"/>
</clipPath>
</defs>
</svg>
