<svg width="1024" height="1024" viewBox="0 0 1024 1024" fill="none" xmlns="http://www.w3.org/2000/svg">
<path d="M853.901 819.621C769.7 913.174 647.666 972 511.891 972C494.898 972 478.121 971.077 461.607 969.281C524.838 919.658 576.474 892.254 645.608 864.583C716.939 836.032 784.186 820.752 853.901 819.621ZM217.972 743.561C463.931 529.99 683.472 484.341 961.168 611.184C953.851 644.479 942.929 676.423 928.828 706.585C797.921 663.586 681.681 664.81 556.754 704.087C471.394 730.923 402.06 769.876 247.228 877.951C244.778 879.661 242.335 881.347 239.902 883.011C207.079 858.907 177.571 830.552 152.191 798.758C172.262 782.649 194.032 764.35 217.972 743.561ZM522.859 266.906C656.253 257.324 817.591 313.468 961.646 415.013C968.356 446.28 971.891 478.727 971.891 512C971.891 514.45 971.869 516.896 971.831 519.337C742.685 374.44 500.504 357.236 291.842 482.267C241.159 512.632 204.355 540.705 72.8956 649.822C60.2392 609.468 52.9941 566.72 52.0089 522.428C245.824 334.297 348.152 279.462 522.859 266.906ZM511.891 52C694.836 52 852.836 158.798 926.95 313.449C718.59 130.196 470.174 71.4517 258.928 169.062C216.757 188.538 180.123 210.578 138.359 243.474C221.875 127.504 358.066 52 511.891 52Z" fill="white" style="fill:white;fill-opacity:1;"/>
</svg>
